<?xml version="1.0" standalone="no"?>
<!DOCTYPE svg PUBLIC "-//W3C//DTD SVG 20010904//EN"
 "http://www.w3.org/TR/2001/REC-SVG-20010904/DTD/svg10.dtd">
<svg version="1.0" xmlns="http://www.w3.org/2000/svg"
 width="300.000000pt" height="300.000000pt" viewBox="0 0 300.000000 300.000000"
 preserveAspectRatio="xMidYMid meet">
<metadata>
Created by potrace 1.10, written by Peter Selinger 2001-2011
</metadata>
<g transform="translate(0.000000,300.000000) scale(0.100000,-0.100000)"
fill="#000000" stroke="none">
<path d="M1394 2739 c-210 -20 -417 -94 -600 -215 -95 -62 -247 -217 -317
-322 -154 -230 -225 -511 -199 -780 27 -269 120 -488 297 -701 423 -508 1199
-586 1719 -172 229 182 394 457 453 756 20 100 22 324 4 425 -57 323 -240 611
-501 789 -253 174 -548 249 -856 220z m466 -82 c348 -111 593 -314 746 -617
72 -142 124 -362 124 -522 l0 -58 -35 0 c-44 0 -55 23 -27 53 28 30 45 78 33
90 -6 6 -16 -3 -28 -24 l-18 -34 -3 47 c-2 29 3 56 12 70 20 31 31 94 17 102
-12 8 -31 -25 -31 -56 -1 -18 -3 -20 -9 -8 -15 25 -16 93 -2 137 14 42 10 73
-9 73 -5 0 -10 -11 -10 -24 0 -13 -3 -33 -7 -43 -6 -16 -8 -15 -13 7 -4 14 0
42 8 63 10 27 12 41 4 49 -8 8 -13 1 -20 -23 l-9 -34 -12 28 c-6 16 -8 46 -5
67 7 44 -1 90 -16 90 -6 0 -10 -19 -10 -42 -1 -42 -1 -43 -15 -18 -8 14 -14
46 -15 73 0 52 -20 66 -20 15 l-1 -33 -14 25 c-8 14 -14 32 -15 41 0 8 -7 39
-15 67 -19 64 -39 70 -31 10 l6 -43 -17 25 c-10 14 -47 57 -83 96 -36 39 -73
83 -82 97 -12 17 -29 26 -53 29 -20 2 -38 1 -40 -3 -6 -9 34 -44 41 -36 9 9
44 -11 44 -25 0 -5 -9 -8 -20 -5 -13 3 -20 0 -20 -9 0 -8 10 -14 25 -14 16 0
42 -16 70 -41 52 -48 56 -58 19 -51 -20 4 -25 1 -22 -9 2 -8 20 -15 40 -17 23
-2 45 -13 64 -33 30 -31 24 -37 -16 -14 -32 18 -40 18 -40 0 0 -17 49 -45 79
-45 14 0 35 -21 65 -67 25 -37 43 -69 41 -71 -2 -3 -19 8 -37 23 -28 24 -33
26 -36 11 -5 -23 23 -53 63 -66 18 -6 37 -22 44 -36 10 -24 10 -26 -6 -19 -10
4 -27 10 -38 13 -18 5 -19 4 -6 -12 8 -9 29 -23 46 -30 18 -8 35 -23 38 -35 7
-26 -5 -27 -28 -1 -21 23 -35 26 -35 7 0 -15 37 -52 59 -59 13 -4 45 -108 36
-116 -2 -2 -13 14 -25 37 -21 42 -40 54 -40 26 0 -24 25 -68 54 -92 21 -18 26
-32 26 -65 l-1 -43 -20 38 c-21 39 -39 49 -39 20 0 -23 36 -83 50 -83 5 0 10
-11 10 -25 0 -22 -4 -25 -39 -25 l-38 0 -6 108 c-22 423 -347 822 -762 932
-116 31 -313 38 -435 16 -390 -72 -688 -328 -809 -696 -23 -73 -51 -240 -51
-313 l0 -48 -37 3 c-49 4 -53 26 -13 66 18 18 30 41 30 56 0 37 -17 32 -31 -9
-18 -48 -28 -44 -21 10 3 35 13 54 38 79 23 23 34 43 34 63 l-1 28 -17 -21
c-9 -12 -23 -30 -29 -40 -11 -16 -12 -13 -7 21 9 63 12 69 44 87 31 17 48 44
36 55 -3 4 -17 -4 -31 -17 -17 -16 -25 -19 -25 -9 0 20 11 32 44 49 16 8 31
21 34 29 5 14 3 14 -47 -6 -11 -5 -10 -1 1 22 9 17 29 33 49 39 33 11 70 58
56 72 -4 4 -21 -5 -37 -21 -43 -41 -45 -27 -5 34 19 29 35 57 35 62 0 5 12 11
28 14 43 9 77 29 80 49 4 16 2 16 -27 2 -47 -25 -58 -19 -26 14 22 23 38 30
66 30 48 0 63 27 17 32 l-31 3 47 39 c26 21 62 42 79 45 17 4 33 13 35 20 3
10 -1 12 -17 8 -30 -7 -26 9 6 25 37 18 41 38 8 38 -34 0 -65 -17 -65 -35 0
-8 -16 -33 -36 -55 -27 -29 -40 -38 -49 -30 -9 8 -16 -1 -29 -32 -9 -24 -28
-56 -42 -73 l-26 -30 6 30 c4 17 9 38 12 48 3 9 0 17 -6 17 -15 0 -40 -62 -40
-99 0 -35 -19 -81 -33 -81 -5 0 -6 11 -3 25 8 31 -2 54 -15 34 -5 -8 -9 -36
-9 -64 0 -27 -5 -57 -10 -65 -7 -11 -10 -6 -10 22 0 20 -4 40 -10 43 -14 9
-23 -40 -16 -85 7 -42 -13 -113 -21 -75 -8 40 -13 49 -24 38 -6 -6 -4 -24 6
-52 9 -28 12 -49 6 -59 -7 -12 -11 -5 -19 29 -9 43 -9 44 -20 18 -11 -27 -7
-64 10 -86 11 -14 0 -121 -13 -129 -5 -3 -9 8 -9 25 0 58 -23 83 -33 35 -3
-15 4 -43 17 -67 16 -33 20 -53 16 -92 -5 -45 -7 -47 -14 -23 -10 34 -32 54
-39 35 -7 -18 19 -76 38 -83 8 -3 15 -17 15 -30 0 -21 -4 -24 -42 -24 l-41 0
7 121 c17 300 129 550 346 770 107 108 177 159 312 225 195 94 341 124 593
120 176 -3 183 -4 295 -39z m-205 -177 c111 -16 182 -37 281 -84 112 -53 165
-89 250 -168 188 -176 309 -427 321 -665 l6 -103 -52 0 -51 0 0 50 0 50 38 -6
c39 -6 39 -6 34 24 -2 20 -33 63 -89 126 l-84 96 27 35 c36 48 20 67 -25 29
l-32 -27 -29 28 c-31 30 -57 27 -40 -6 6 -10 17 -19 25 -19 8 0 15 -4 15 -8 0
-7 -227 -62 -258 -62 -7 0 -12 13 -12 29 0 37 -13 46 -33 23 -14 -15 -13 -19
7 -42 61 -68 81 -81 112 -71 16 5 43 12 59 16 28 6 29 5 14 -10 -9 -9 -34 -19
-56 -22 -36 -5 -39 -8 -36 -32 2 -14 0 -32 -5 -39 -10 -14 -81 -34 -94 -26
-16 10 6 33 35 36 19 2 33 9 34 18 2 8 -47 67 -107 130 -61 63 -141 148 -177
188 l-66 73 26 27 c26 27 34 52 21 65 -4 3 -23 -7 -43 -23 -19 -17 -40 -30
-46 -30 -6 0 -24 14 -40 30 -48 51 -85 32 -41 -21 14 -17 26 -34 26 -39 0 -8
-271 -120 -291 -120 -6 0 -9 12 -7 28 3 26 1 27 -44 30 l-48 3 0 -68 0 -68
-105 -105 c-85 -84 -105 -110 -105 -133 0 -28 2 -29 40 -25 36 3 39 1 42 -22
2 -14 1 -44 -1 -67 l-3 -43 -82 0 c-88 0 -105 8 -120 58 -10 30 11 29 25 -2
11 -24 48 -36 117 -36 31 0 32 2 32 40 0 37 -2 40 -27 40 -55 0 -83 61 -46
102 9 10 14 19 12 21 -2 1 -43 1 -91 -1 -87 -3 -87 -3 -108 -38 -12 -19 -42
-50 -66 -70 -29 -24 -44 -44 -44 -59 0 -47 -9 -55 -66 -55 l-54 0 0 38 c1 303
149 607 382 783 217 163 487 235 743 199z m-15 -461 c0 -18 -17 -9 -40 23
l-23 32 31 -23 c18 -12 32 -27 32 -32z m-30 -25 c0 -18 -329 -354 -347 -354
-7 0 -13 5 -13 12 0 16 331 354 348 357 6 0 12 -6 12 -15z m289 -244 c51 -55
86 -100 78 -100 -23 0 -330 327 -321 341 5 9 30 -12 78 -64 39 -42 113 -121
165 -177z m-396 215 c-32 -22 -190 -77 -210 -73 -11 2 2 10 32 20 28 10 77 28
110 42 70 28 100 33 68 11z m-253 -54 c0 -30 -4 -40 -20 -44 -18 -5 -20 0 -20
39 0 37 3 44 20 44 17 0 20 -7 20 -39z m370 -1 c0 -20 -5 -30 -15 -30 -18 0
-19 14 -5 41 15 27 20 24 20 -11z m-165 1 c-8 -14 -174 -66 -182 -58 -9 9 -9
9 82 39 88 29 109 33 100 19z m115 -98 c0 -38 3 -78 6 -90 5 -17 2 -23 -10
-23 -14 0 -16 14 -16 90 0 53 4 90 10 90 6 0 10 -29 10 -67z m-169 43 c-7 -8
-27 -17 -46 -20 -19 -4 -58 -18 -87 -31 -47 -21 -151 -46 -138 -33 13 14 237
95 269 97 10 1 11 -2 2 -13z m315 -81 c2 -59 -1 -75 -12 -75 -11 0 -14 19 -14
87 0 111 22 101 26 -12z m-86 70 c0 -8 5 -15 11 -15 6 0 9 7 5 15 -3 9 0 15 9
15 11 0 15 -13 15 -50 l0 -50 -40 0 c-22 0 -40 5 -40 10 0 6 6 10 13 10 8 0
14 7 14 15 0 8 -6 15 -14 15 -13 0 -18 31 -6 43 12 13 33 7 33 -8z m-100 -70
c0 -43 -4 -75 -10 -75 -11 0 -14 133 -3 143 12 13 13 7 13 -68z m754 23 c-17
-18 -73 -80 -125 -137 -65 -72 -95 -98 -97 -87 -4 18 132 168 202 223 52 41
58 41 20 1z m-938 7 c-11 -8 -24 -15 -29 -15 -4 0 -5 -4 -2 -10 8 -13 -25 -25
-110 -40 -38 -7 -80 -14 -92 -17 -13 -3 -23 -1 -23 4 0 5 32 17 72 27 39 10
94 29 122 42 59 27 93 32 62 9z m408 -7 c10 -41 7 -98 -6 -98 -9 0 -13 19 -13
60 0 61 8 77 19 38z m-264 -43 c0 -30 -4 -55 -10 -55 -11 0 -14 93 -3 103 12
12 13 8 13 -48z m309 -32 c1 -12 -3 -25 -9 -28 -6 -4 -10 12 -9 42 0 36 3 43
9 28 5 -11 9 -30 9 -42z m381 32 c-6 -8 -22 -15 -34 -15 -32 1 -65 -6 -72 -13
-17 -17 -25 -5 -10 12 10 11 25 19 34 19 10 0 26 3 36 7 15 7 17 5 11 -5 -5
-9 0 -8 15 3 27 19 39 15 20 -8z m-730 -20 c0 -24 -5 -35 -15 -35 -18 0 -20
41 -3 58 17 17 18 16 18 -23z m934 -58 c66 -76 87 -107 72 -107 -8 0 -166 183
-166 192 0 19 18 2 94 -85z m-1114 49 c-8 -7 -55 -21 -105 -30 -49 -10 -96
-19 -103 -22 -8 -2 -12 2 -10 8 4 11 169 54 218 57 13 1 13 -1 0 -13z m358 -9
c2 -10 -3 -17 -12 -17 -10 0 -16 9 -16 21 0 24 23 21 28 -4z m42 3 c0 -11 -7
-20 -15 -20 -15 0 -21 21 -8 33 12 13 23 7 23 -13z m-444 -37 c-13 -13 -217
-60 -222 -51 -7 11 14 18 110 39 91 19 123 22 112 12z m1037 -61 c53 -5 46
-23 -8 -20 l-45 1 1 41 c1 38 2 39 8 11 5 -26 11 -30 44 -33z m67 -64 c0 -59
-4 -98 -10 -98 -6 0 -10 44 -10 113 0 76 3 107 10 97 5 -8 10 -59 10 -112z
m-460 102 c0 -10 -71 -13 -252 -10 -74 1 -88 -1 -88 -14 0 -9 -4 -16 -10 -16
-5 0 -10 7 -10 15 0 12 -13 15 -60 15 -47 0 -60 -3 -60 -15 0 -8 -7 -15 -15
-15 -9 0 -15 9 -15 25 l0 25 255 0 c163 0 255 -4 255 -10z m-1011 -65 c58 -56
83 -70 124 -74 5 -1 5 -6 1 -12 -15 -25 -70 2 -136 68 -62 62 -78 83 -62 83 3
0 36 -29 73 -65z m48 25 c2 -22 -1 -40 -6 -40 -9 0 -71 66 -71 75 0 3 17 5 38
5 36 0 37 -1 39 -40z m1293 -60 c0 -60 -4 -100 -10 -100 -11 0 -14 182 -3 193
12 13 13 7 13 -93z m-860 76 c0 -20 -19 -31 -32 -18 -6 6 -7 15 -4 21 10 16
36 13 36 -3z m585 -6 c0 -22 -29 -18 -33 3 -3 14 1 18 15 15 10 -2 18 -10 18
-18z m432 -80 c2 -56 -1 -90 -7 -90 -6 0 -10 39 -10 97 0 120 12 115 17 -7z
m-1147 81 c0 -11 -18 -17 -82 -26 -68 -9 -60 10 10 22 31 6 60 11 65 12 4 0 7
-3 7 -8z m240 -21 c0 -11 -7 -20 -15 -20 -8 0 -15 9 -15 20 0 11 7 20 15 20 8
0 15 -9 15 -20z m120 -65 c0 -50 -4 -85 -10 -85 -6 0 -10 35 -10 85 0 50 4 85
10 85 6 0 10 -35 10 -85z m30 0 c0 -47 -4 -85 -10 -85 -5 0 -7 34 -5 83 4 92
3 87 10 87 3 0 5 -38 5 -85z m40 0 c0 -50 -4 -85 -10 -85 -6 0 -10 35 -10 85
0 50 4 85 10 85 6 0 10 -35 10 -85z m30 0 c0 -50 -4 -85 -10 -85 -6 0 -10 35
-10 85 0 50 4 85 10 85 6 0 10 -35 10 -85z m86 74 c3 -6 1 -16 -5 -22 -9 -9
-14 -8 -21 3 -9 15 -4 30 10 30 5 0 12 -5 16 -11z m44 -10 c0 -24 -23 -21 -28
4 -2 10 3 17 12 17 10 0 16 -9 16 -21z m368 -70 c1 -58 -2 -79 -10 -77 -11 4
-19 129 -10 151 11 25 19 -4 20 -74z m-1366 54 c28 -32 32 -133 6 -133 -6 0
-9 22 -6 55 5 59 -7 74 -42 55 -31 -17 -35 -11 -10 15 28 30 32 30 52 8z m596
0 c2 -8 -5 -13 -17 -13 -12 0 -21 6 -21 16 0 18 31 15 38 -3z m-128 -2 c0 -5
-30 -12 -67 -16 -38 -3 -80 -9 -95 -11 -16 -3 -28 -1 -28 4 0 6 26 13 58 17
31 4 62 8 67 10 21 7 65 5 65 -4z m65 -1 c10 -16 -16 -43 -28 -31 -11 11 -2
41 12 41 5 0 13 -5 16 -10z m595 -13 c0 -21 -12 -28 -27 -16 -19 16 -16 29 7
29 11 0 20 -6 20 -13z m-480 -17 c0 -11 -7 -20 -15 -20 -8 0 -15 9 -15 20 0
11 7 20 15 20 8 0 15 -9 15 -20z m40 0 c0 -11 -7 -20 -15 -20 -8 0 -15 9 -15
20 0 11 7 20 15 20 8 0 15 -9 15 -20z m310 0 c0 -11 -7 -20 -15 -20 -8 0 -15
9 -15 20 0 11 7 20 15 20 8 0 15 -9 15 -20z m488 -42 l-2 -63 -3 58 c-3 49 -7
57 -23 57 -17 0 -20 -7 -20 -56 0 -34 -4 -53 -10 -49 -11 7 -14 98 -3 108 3 4
19 7 35 7 28 0 28 0 26 -62z m-888 33 c0 -6 -5 -13 -10 -16 -15 -9 -43 3 -35
15 8 13 45 13 45 1z m468 -3 c-7 -20 -48 -23 -48 -4 0 11 9 16 26 16 16 0 24
-5 22 -12z m107 2 c-4 -6 13 -10 44 -10 28 0 51 -4 51 -10 0 -5 -25 -10 -55
-10 -48 0 -55 2 -55 20 0 11 5 20 11 20 5 0 7 -4 4 -10z m295 -40 c0 -27 -4
-50 -10 -50 -5 0 -10 23 -10 50 0 28 5 50 10 50 6 0 10 -22 10 -50z m-1520 -6
c0 -28 -4 -44 -11 -42 -6 2 -10 7 -10 11 1 4 1 23 1 42 0 19 5 35 10 35 6 0
10 -21 10 -46z m38 1 c-1 -25 -6 -45 -10 -45 -4 0 -8 20 -8 45 0 25 4 45 10
45 5 0 9 -20 8 -45z m482 35 c0 -6 -37 -10 -91 -10 -57 0 -88 4 -84 10 3 6 44
10 91 10 49 0 84 -4 84 -10z m66 -11 c10 -17 -13 -36 -27 -22 -12 12 -4 33 11
33 5 0 12 -5 16 -11z m590 0 c10 -17 -13 -36 -27 -22 -12 12 -4 33 11 33 5 0
12 -5 16 -11z m-396 -24 c0 -12 -16 -15 -85 -15 -47 0 -85 4 -85 9 0 15 21 19
98 20 58 1 72 -2 72 -14z m294 9 c76 -11 52 -24 -44 -24 -83 0 -101 5 -83 23
8 9 66 9 127 1z m-544 -14 c0 -6 -40 -10 -101 -10 -64 0 -98 4 -94 10 3 6 48
10 101 10 56 0 94 -4 94 -10z m789 -4 c-11 -9 -119 -15 -119 -7 0 6 26 11 58
13 56 3 70 2 61 -6z m-141 -29 c2 -10 -3 -17 -12 -17 -18 0 -29 16 -21 31 9
14 29 6 33 -14z m-663 -2 c-23 -8 -175 -11 -175 -3 0 4 42 8 93 7 50 0 88 -2
82 -4z m228 -2 c-23 -2 -64 -2 -90 0 -26 2 -7 3 42 3 50 0 71 -1 48 -3z m340
0 c-23 -2 -64 -2 -90 0 -26 2 -7 3 42 3 50 0 71 -1 48 -3z m227 -3 c0 -5 -22
-10 -50 -10 -27 0 -50 5 -50 10 0 6 23 10 50 10 28 0 50 -4 50 -10z m660 -45
c0 -13 -144 -15 -1200 -17 -1137 -3 -1200 -2 -1200 15 0 16 64 17 1200 17
1057 0 1200 -2 1200 -15z m-1875 -65 c-4 -6 -102 -10 -260 -10 -158 0 -256 4
-260 10 -4 7 85 10 260 10 175 0 264 -3 260 -10z m238 -2 c30 -1 32 -5 17 -43
-9 -25 -11 -25 -32 -11 -12 9 -39 16 -60 16 -49 0 -78 -28 -78 -74 0 -43 38
-76 86 -76 30 0 34 3 34 25 0 18 -5 25 -20 25 -11 0 -20 6 -20 14 0 10 18 15
63 19 63 5 102 -8 58 -20 -22 -6 -23 -10 -18 -55 5 -39 3 -49 -7 -45 -7 3 -34
1 -59 -5 -120 -25 -220 73 -170 169 27 51 76 76 133 68 25 -4 57 -7 73 -7z
m307 -1 c39 -19 57 -59 42 -92 -7 -15 -21 -29 -32 -32 -11 -3 -20 -9 -20 -13
0 -15 52 -70 66 -70 8 0 14 -4 14 -10 0 -6 -27 -10 -60 -10 -48 0 -58 3 -54
15 10 25 -34 75 -67 75 -25 0 -29 -4 -29 -27 0 -14 7 -35 17 -45 15 -17 14
-18 -42 -18 -55 0 -57 1 -43 18 13 13 15 36 13 107 -2 52 -8 91 -14 93 -6 2
-11 8 -11 13 0 14 191 11 220 -4z m109 -13 c-22 -23 -24 -24 -36 -8 -20 28
-16 34 24 34 l36 0 -24 -26z m338 -84 c29 -58 52 -113 53 -122 0 -10 -10 -18
-27 -21 -35 -6 -110 -3 -118 5 -3 3 5 23 20 43 31 47 33 107 5 150 -25 37 -26
57 -2 53 10 -2 37 -43 69 -108z m93 102 c0 -4 -5 -13 -10 -18 -7 -7 0 -34 22
-82 l32 -72 34 72 c26 57 31 77 23 91 -10 15 -6 17 44 17 53 0 72 -11 39 -24
-8 -3 -37 -53 -65 -111 -48 -101 -51 -105 -82 -105 -31 0 -33 3 -77 106 -28
67 -52 108 -62 111 -38 11 -15 23 42 23 33 0 60 -4 60 -8z m58 -45 c-5 -10
-13 -15 -19 -12 -13 9 -11 39 3 53 17 17 29 -16 16 -41z m722 43 c0 -6 -98
-10 -275 -10 -177 0 -275 4 -275 10 0 6 98 10 275 10 177 0 275 -4 275 -10z
m-1027 -14 c123 -52 80 -219 -56 -219 -80 0 -137 51 -137 124 0 46 56 97 113
102 23 2 43 4 45 5 1 1 17 -4 35 -12z m-848 -26 c-4 -6 -100 -10 -256 -10
-159 0 -249 4 -249 10 0 6 92 10 256 10 167 0 253 -3 249 -10z m1875 0 c0 -6
-102 -10 -285 -10 -183 0 -285 4 -285 10 0 6 102 10 285 10 183 0 285 -4 285
-10z m-1885 -40 c-4 -6 -97 -10 -246 -10 -153 0 -239 4 -239 10 0 6 89 10 246
10 161 0 243 -3 239 -10z m1875 0 c0 -6 -102 -10 -285 -10 -183 0 -285 4 -285
10 0 6 102 10 285 10 183 0 285 -4 285 -10z m-580 -17 c0 -5 128 -7 285 -5
230 3 285 1 285 -10 0 -10 -56 -12 -284 -10 -183 1 -287 -1 -291 -8 -4 -7 90
-10 279 -10 184 0 286 -4 286 -10 0 -11 -47 -13 -353 -12 -114 1 -212 4 -216
7 -5 2 -11 -5 -15 -18 -15 -55 -29 -52 274 -49 182 2 280 -1 280 -7 0 -12
-549 -20 -557 -8 -2 4 -16 4 -30 1 -15 -4 -24 -3 -22 3 31 76 64 143 71 143 4
0 8 -3 8 -7z m-1305 -13 c8 -13 19 -12 -240 -11 -134 1 -221 5 -223 11 -5 14
455 14 463 0z m10 -40 c4 -7 -64 -10 -198 -10 -113 0 -219 -3 -236 -6 -24 -5
-31 -3 -31 10 0 14 24 16 229 16 143 0 232 -4 236 -10z m10 -40 c4 -7 -75 -10
-229 -10 -151 0 -236 4 -236 10 0 6 83 10 229 10 143 0 232 -4 236 -10z m1835
0 c0 -6 -96 -11 -265 -12 -146 -1 -272 -2 -282 -2 -9 -1 -18 5 -20 12 -4 9 57
12 281 12 184 0 286 -4 286 -10z m-1830 -40 c0 -14 -447 -14 -455 0 -4 7 73
10 224 10 147 0 231 -4 231 -10z m-317 -46 c-4 -14 -116 -11 -120 3 -3 9 13
11 59 9 35 -2 62 -7 61 -12z m156 10 c17 -4 31 -10 31 -15 0 -12 -107 -12
-114 0 -13 20 23 27 83 15z m1959 -6 c-3 -8 -27 -14 -63 -16 -79 -4 -107 10
-35 18 93 11 102 11 98 -2z m-2048 -52 c0 -12 -4 -27 -9 -35 -7 -11 -12 -8
-25 11 -13 20 -14 31 -6 54 11 28 12 28 26 10 8 -11 14 -29 14 -40z m335 39
c28 -10 43 -11 52 -3 16 13 16 5 2 -45 -9 -33 -12 -36 -25 -22 -22 22 -95 39
-124 28 -48 -16 -29 -36 52 -53 84 -18 103 -29 112 -65 21 -82 -94 -131 -209
-90 -30 11 -41 11 -47 2 -15 -25 -20 5 -8 48 l13 46 21 -20 c43 -41 132 -55
156 -26 19 23 3 34 -66 45 -80 13 -109 36 -109 86 0 70 84 103 180 69z m385
-35 c0 -55 -7 -61 -33 -30 -14 16 -29 20 -82 20 l-65 0 0 -30 c0 -28 2 -30 39
-30 22 0 43 5 46 10 13 21 25 8 25 -28 l0 -39 -55 5 -55 4 0 -29 0 -29 73 4
c64 3 75 7 95 30 l22 27 -2 -55 -3 -55 -138 0 c-75 0 -137 3 -137 6 0 4 7 12
15 19 23 19 21 202 -2 221 -14 12 2 15 113 19 71 3 132 7 137 8 4 1 7 -20 7
-48z m334 -4 c7 -58 1 -69 -22 -40 -9 12 -33 24 -53 27 l-37 5 3 -90 c3 -73 7
-92 22 -103 22 -18 23 -17 -59 -19 -70 -1 -83 5 -48 24 18 9 20 21 20 101 l0
91 -32 -7 c-18 -4 -40 -15 -50 -26 -16 -19 -44 -27 -33 -9 3 5 6 29 7 52 l0
43 138 0 138 0 6 -49z m306 0 l0 -49 -23 21 c-19 18 -35 22 -85 22 l-62 0 0
-30 c0 -29 1 -29 42 -25 24 2 44 9 46 15 10 28 22 4 22 -42 0 -40 -3 -49 -12
-40 -7 7 -31 12 -55 12 -40 0 -43 -2 -43 -27 l0 -28 67 3 c52 3 73 9 90 25 13
11 24 19 26 16 2 -2 2 -24 -1 -49 l-4 -45 -136 2 c-75 1 -139 2 -142 3 -3 0 2
6 11 13 23 17 33 202 12 222 -7 8 -13 17 -13 22 0 4 59 8 130 8 l130 0 0 -49z
m480 44 c0 -5 -22 -10 -50 -10 -27 0 -50 5 -50 10 0 6 23 10 50 10 28 0 50 -4
50 -10z m46 -15 c8 -33 -3 -77 -19 -72 -15 4 -21 40 -13 73 8 31 24 31 32 -1z
m-217 4 c71 -25 70 -117 -2 -142 -16 -6 -16 -10 10 -42 15 -20 40 -39 56 -42
46 -9 30 -23 -27 -23 -30 0 -62 -3 -72 -7 -14 -5 -16 -3 -11 11 5 11 -1 31
-14 52 -17 28 -27 34 -55 34 -31 0 -34 -3 -34 -29 0 -16 7 -34 15 -41 25 -21
17 -25 -50 -25 -62 0 -83 9 -50 21 12 5 15 27 15 111 0 89 -3 108 -17 119 -15
11 -1 13 93 14 61 0 125 -5 143 -11z m-1756 -15 c11 -11 -25 -54 -44 -54 -11
0 -23 10 -28 23 -7 19 -5 23 18 28 37 9 47 10 54 3z m207 -4 c0 -5 -22 -10
-50 -10 -27 0 -50 5 -50 10 0 6 23 10 50 10 28 0 50 -4 50 -10z m1679 4 c40
-8 30 -24 -15 -24 -24 0 -34 5 -34 15 0 17 4 18 49 9z m231 2 c0 -3 -5 -17
-10 -31 -7 -20 -16 -26 -33 -23 -12 2 -21 9 -19 16 1 7 -5 15 -13 18 -30 12
-14 24 30 24 25 0 45 -2 45 -4z m-1950 -65 c0 -28 -38 -71 -61 -71 -18 0 -8
39 17 69 32 39 44 39 44 2z m360 -1 c0 -28 -13 -40 -24 -22 -7 12 5 52 15 52
5 0 9 -13 9 -30z m-471 -22 c12 -13 33 -50 47 -83 14 -33 28 -66 31 -72 3 -7
0 -13 -6 -13 -12 0 -51 71 -51 93 0 7 -17 25 -37 38 -27 17 -39 33 -41 52 -3
25 -1 27 16 18 10 -5 29 -20 41 -33z m1856 17 c14 -13 25 -31 25 -40 0 -23 15
-18 28 9 12 28 59 62 69 52 15 -14 -13 -62 -44 -75 -18 -8 -35 -24 -38 -35
-14 -49 -39 -96 -52 -96 -15 0 -18 16 -4 24 5 4 16 26 24 51 13 37 13 45 2 45
-18 0 -55 48 -55 71 0 26 16 24 45 -6z m-412 -17 c8 -59 -4 -63 -62 -21 -6 4
40 53 50 53 4 0 9 -15 12 -32z m-614 -8 c34 18 41 11 41 -35 0 -59 -27 -115
-56 -115 -19 0 -22 6 -22 46 -1 52 -23 84 -56 84 -20 0 -20 1 4 20 23 17 27
17 48 4 16 -11 27 -12 41 -4z m226 -1 c4 -6 19 -7 35 -4 l29 6 -4 -51 c-7 -89
-55 -131 -83 -72 -7 15 -16 51 -19 80 -5 48 -4 52 15 52 11 0 24 -5 27 -11z
m-902 -24 c1 -5 -11 -12 -27 -13 -27 -3 -28 -2 -16 13 14 17 40 17 43 0z
m1657 -13 c-8 -3 -23 -11 -33 -20 -24 -22 -33 -7 -13 23 15 22 19 24 39 13 17
-9 19 -12 7 -16z m-1802 -32 c2 0 0 -4 -3 -10 -6 -9 -55 -15 -55 -6 0 2 -3 11
-6 20 -5 13 -1 14 28 6 18 -6 34 -10 36 -10z m1968 4 c-3 -9 -6 -18 -6 -20 0
-2 -13 -4 -30 -4 -39 0 -41 27 -2 33 15 2 31 5 36 6 4 0 5 -6 2 -15z m-1838
-11 c2 -8 -6 -13 -21 -13 -32 0 -57 9 -57 22 0 14 73 5 78 -9z m1712 7 c0 -5
-16 -10 -35 -10 -19 0 -35 5 -35 10 0 6 16 10 35 10 19 0 35 -4 35 -10z
m-1722 -58 c3 -9 -3 -13 -19 -10 -12 1 -24 9 -27 16 -3 9 3 13 19 10 12 -1 24
-9 27 -16z m1812 3 c0 -16 -35 -21 -44 -6 -8 12 4 21 26 21 10 0 18 -7 18 -15z
m-60 -80 c-11 -13 -128 -15 -921 -15 -500 0 -909 2 -909 4 0 2 -2 10 -5 18 -4
11 153 13 921 10 819 -2 925 -4 914 -17z m-1530 -77 c21 -35 27 -84 10 -73
-12 7 -50 79 -50 95 0 21 21 9 40 -22z m723 22 c280 -1 467 -5 467 -11 0 -5
-6 -9 -13 -9 -8 0 -22 -9 -31 -19 -10 -11 -31 -23 -46 -26 -16 -3 -40 -17 -55
-31 -25 -23 -41 -32 -32 -16 3 4 -78 7 -181 7 -114 0 -187 4 -189 10 -2 6 53
9 154 7 150 -3 232 3 220 15 -4 4 -537 6 -795 3 -7 0 -11 -4 -8 -9 3 -4 89 -8
191 -7 119 1 184 -3 182 -9 -5 -14 -333 -18 -371 -5 -28 10 -28 9 -13 -8 10
-10 17 -21 17 -25 0 -3 18 -25 39 -49 22 -23 38 -44 36 -46 -12 -13 -50 17
-80 62 -46 69 -83 106 -107 106 -14 0 -18 5 -13 19 5 15 -1 20 -32 26 l-38 8
30 6 c17 4 68 6 115 4 47 -1 295 -2 553 -3z m537 -6 c0 -21 -41 -94 -53 -94
-13 0 -1 55 19 85 19 29 34 33 34 9z m-1331 -20 c46 -38 38 -46 -21 -23 -30
12 -66 19 -83 16 -32 -5 -65 7 -65 23 0 6 31 10 69 10 60 0 74 -3 100 -26z
m1526 6 c-13 -15 -31 -20 -67 -20 -27 0 -65 -7 -85 -15 -20 -8 -38 -14 -40
-11 -2 2 8 18 22 35 26 30 29 31 107 31 80 0 81 0 63 -20z m-1379 -65 c9 -25
14 -48 10 -52 -13 -13 -38 25 -43 67 -8 55 9 47 33 -15z m1089 -24 c-8 -17
-20 -31 -25 -31 -17 0 -11 30 13 73 21 38 22 39 25 14 2 -14 -4 -39 -13 -56z
m-1235 29 c20 -5 45 -17 55 -25 18 -14 14 -15 -50 -9 -45 4 -79 13 -94 25
l-24 19 39 0 c22 0 55 -5 74 -10z m1450 -10 c-14 -11 -34 -20 -46 -20 -12 0
-43 -3 -69 -7 -35 -4 -46 -3 -41 5 10 16 93 41 141 41 l40 1 -25 -20z m-1231
-42 c8 -23 14 -29 20 -20 6 10 12 7 25 -13 23 -34 17 -39 -23 -19 -32 16 -71
66 -71 92 0 24 37 -6 49 -40z m961 34 c0 -20 -76 -109 -86 -100 -8 9 14 49 49
86 36 37 37 38 37 14z m-480 -18 c11 -12 11 -18 -2 -31 -19 -18 -38 -10 -38
16 0 33 20 40 40 15z m-620 -31 c62 -5 86 -19 49 -28 -38 -9 -96 2 -134 25
-44 27 -44 32 -2 18 17 -6 57 -13 87 -15z m564 -8 c31 -31 37 -31 74 0 28 24
36 25 153 25 100 -1 120 -3 104 -12 -11 -7 -67 -15 -125 -18 -58 -4 -90 -8
-72 -8 19 -1 31 -6 27 -12 -4 -6 -58 -10 -130 -10 -72 0 -126 4 -130 10 -4 6
13 11 42 12 26 1 -4 5 -67 9 -63 4 -126 10 -139 15 -17 5 -22 4 -17 -4 4 -7 2
-12 -3 -12 -12 0 -14 13 -4 23 3 4 64 7 134 7 123 0 129 -1 153 -25z m713 0
c-22 -20 -39 -25 -80 -25 -60 0 -90 13 -60 25 15 6 45 11 158 23 6 1 -3 -10
-18 -23z m-267 9 c0 -16 -45 -66 -71 -79 -40 -21 -36 -8 13 42 39 40 58 52 58
37z m-670 -60 c22 -20 40 -40 40 -45 0 -20 -24 -7 -68 36 -56 55 -32 63 28 9z
m548 -9 c-44 -42 -68 -55 -68 -37 0 4 15 22 33 39 27 26 44 36 77 42 3 0 -16
-20 -42 -44z m309 8 c-20 -21 -177 -33 -177 -15 0 16 32 23 104 21 37 -1 69 1
73 5 3 3 9 6 12 6 3 0 -3 -8 -12 -17z m-1033 1 c35 -14 12 -24 -52 -24 -44 0
-75 5 -88 15 -17 13 -13 14 53 15 39 0 78 -3 87 -6z m297 -20 c29 -14 55 -42
47 -50 -8 -8 -121 49 -126 64 -5 15 36 8 79 -14z m359 7 c-11 -21 -48 -51 -64
-51 -5 0 -1 9 9 20 10 11 13 20 8 20 -6 0 -16 -7 -23 -16 -8 -8 -22 -20 -33
-26 -17 -9 -19 -8 -14 11 4 16 1 20 -15 18 -12 -1 -23 3 -25 9 -2 7 15 11 50
11 30 0 62 5 73 11 31 19 46 15 34 -7z m-280 -11 c12 -8 12 -10 -3 -16 -22 -8
-50 3 -42 16 8 12 25 13 45 0z m94 -19 c35 -39 4 -90 -47 -77 -35 8 -46 49
-22 76 23 25 47 25 69 1z m424 -5 c49 2 48 -4 -5 -22 -27 -10 -49 -10 -90 -2
-29 6 -53 14 -53 19 0 12 41 17 75 10 17 -3 49 -5 73 -5z m-775 -7 c-15 -15
-104 -24 -140 -14 l-28 8 30 7 c17 4 57 8 90 9 44 1 56 -2 48 -10z m100 -19
c7 -1 -4 -9 -23 -20 -37 -20 -95 -26 -105 -10 -7 11 83 41 103 34 8 -2 19 -4
25 -4z m510 -6 c53 -18 61 -34 18 -34 -30 0 -91 29 -91 43 0 11 22 9 73 -9z
m-362 -44 l42 -30 -44 1 c-24 1 -57 4 -74 8 -28 6 -28 7 -7 13 12 3 22 11 22
17 0 8 -11 6 -31 -4 -16 -9 -45 -15 -62 -13 l-32 3 45 23 c54 28 84 24 141
-18z m278 18 c37 -18 41 -23 25 -28 -10 -4 -32 -4 -49 1 -16 4 -42 10 -57 13
-47 11 -35 26 26 35 5 0 30 -9 55 -21z m-59 -40 c0 -4 -30 -8 -67 -8 l-68 0
35 18 c27 14 42 16 68 8 17 -5 32 -13 32 -18z"/>
<path d="M1452 2624 c-30 -14 5 -24 82 -24 106 0 206 -10 206 -21 0 -5 -10
-10 -22 -10 -13 -1 11 -7 54 -14 42 -7 85 -18 96 -24 32 -17 92 -14 92 4 0 9
-9 15 -24 15 -14 0 -28 5 -31 11 -4 5 -21 8 -38 5 -24 -4 -27 -4 -12 3 17 7
13 10 -25 20 -25 7 -58 17 -75 23 -32 11 -282 21 -303 12z"/>
<path d="M1985 2510 c12 -13 25 -17 45 -14 15 4 31 1 34 -5 5 -7 -4 -11 -23
-11 -51 0 -35 -18 20 -22 28 -1 52 -1 54 1 8 7 -25 59 -40 65 -9 3 -37 6 -62
6 -45 0 -46 0 -28 -20z"/>
<path d="M1478 2443 c29 -2 74 -2 100 0 26 2 2 3 -53 3 -55 0 -76 -1 -47 -3z"/>
<path d="M1255 2410 c-4 -7 87 -10 264 -10 174 0 271 4 271 10 0 6 -95 10
-264 10 -166 0 -267 -4 -271 -10z"/>
<path d="M1145 2370 c-4 -7 121 -10 369 -10 239 0 377 4 381 10 4 7 -121 10
-369 10 -239 0 -377 -4 -381 -10z"/>
<path d="M1085 2330 c-7 -12 739 -12 825 0 31 4 -134 8 -382 9 -282 1 -439 -3
-443 -9z"/>
<path d="M1014 2298 c-3 -4 68 -7 158 -7 90 1 156 3 148 5 -36 7 -302 10 -306
2z"/>
<path d="M1660 2300 l-305 -5 338 -3 c224 -1 336 1 332 8 -3 6 -18 9 -33 8
-15 -2 -164 -5 -332 -8z"/>
<path d="M954 2258 c-3 -4 68 -7 158 -7 90 1 156 3 148 5 -36 7 -302 10 -306
2z"/>
<path d="M1447 2258 c-7 -4 133 -8 311 -8 177 0 322 3 322 8 0 9 -618 9 -633
0z"/>
<path d="M1271 2210 c-34 -28 -61 -55 -61 -59 0 -5 -20 -18 -44 -30 -25 -11
-57 -37 -72 -56 -15 -20 -48 -47 -73 -60 -25 -12 -61 -42 -80 -65 l-34 -43
-24 29 c-27 34 -29 44 -9 44 12 0 12 5 1 38 -7 20 -17 46 -20 57 -6 16 -11 9
-25 -35 -13 -38 -15 -57 -8 -61 7 -5 3 -20 -12 -45 -19 -30 -21 -36 -7 -31 9
3 19 3 21 -2 7 -10 -22 -51 -36 -51 -6 0 -19 -7 -29 -16 -16 -14 -18 -14 -28
4 -6 11 -8 22 -5 24 2 3 0 18 -6 34 -9 23 -13 25 -20 14 -6 -8 -10 -25 -10
-38 0 -12 -7 -34 -16 -47 -15 -23 -15 -25 0 -25 9 0 16 -3 16 -8 0 -15 -32
-52 -40 -47 -15 9 -58 -17 -64 -39 -3 -12 -8 -66 -12 -121 -7 -91 -6 -98 10
-92 10 4 20 7 22 7 2 0 4 11 4 24 0 15 19 41 53 75 94 92 97 97 79 115 -15 15
-15 16 1 16 22 0 21 6 -3 37 -22 28 -19 43 9 43 10 0 24 7 31 15 19 23 32 18
19 -7 -10 -18 -9 -20 5 -15 24 9 20 -11 -10 -50 l-25 -33 108 0 108 0 83 83
82 82 0 67 c0 82 12 92 92 80 45 -6 53 -11 56 -30 2 -13 9 -21 15 -19 7 3 41
17 77 32 36 15 80 33 98 41 l33 13 -18 27 c-9 15 -17 37 -18 50 0 16 -19 37
-69 73 -38 28 -72 51 -77 51 -4 0 -35 -23 -68 -50z m5 -71 c-31 -34 -55 -64
-52 -67 10 -9 116 89 122 114 3 13 9 24 11 24 17 0 103 -77 103 -91 0 -10 2
-24 5 -32 12 -29 -136 -89 -161 -64 -2 1 15 30 37 64 23 34 39 68 37 75 -4 12
-18 -6 -72 -95 -16 -26 -21 -28 -56 -22 -23 4 -47 2 -60 -5 -21 -11 -21 -11
-4 22 19 38 132 153 141 145 3 -4 -20 -34 -51 -68z m-102 -61 c-4 -7 -31 -45
-61 -84 -62 -83 -68 -102 -17 -53 l36 34 -7 -40 c-8 -49 -33 -86 -68 -103 -20
-10 -27 -21 -27 -43 0 -33 -11 -37 -31 -12 -11 12 -11 17 -2 20 10 4 9 11 -2
33 -10 20 -11 30 -3 32 8 3 7 9 -1 23 -20 31 1 72 46 90 21 9 58 38 83 65 43
47 70 66 54 38z m-218 -183 c-9 -14 -12 -25 -6 -25 15 0 12 -21 -7 -42 -15
-17 -15 -18 0 -18 21 0 21 -16 -2 -59 l-18 -34 -21 31 c-34 47 -27 69 10 35
11 -9 18 -11 18 -5 0 7 -4 12 -9 12 -12 0 -54 87 -49 102 3 7 13 2 26 -12 14
-15 22 -19 22 -10 0 16 29 50 43 50 5 0 2 -11 -7 -25z m-92 -63 c3 -5 -1 -25
-8 -46 l-13 -39 -7 37 c-7 37 -2 56 14 56 5 0 11 -4 14 -8z m-184 -123 c0 -17
-62 -129 -71 -129 -16 0 -9 53 12 97 14 28 27 43 40 43 10 0 19 -5 19 -11z"/>
<path d="M1372 2083 c-35 -55 -39 -65 -19 -57 18 6 60 81 55 96 -2 6 -18 -11
-36 -39z"/>
<path d="M988 2223 c45 -2 119 -2 165 0 45 1 8 3 -83 3 -91 0 -128 -2 -82 -3z"/>
<path d="M1633 2223 c93 -2 241 -2 330 0 89 1 14 3 -168 3 -181 0 -254 -2
-162 -3z"/>
<path d="M938 2183 c45 -2 119 -2 165 0 45 1 8 3 -83 3 -91 0 -128 -2 -82 -3z"/>
<path d="M1728 2183 c84 -2 219 -2 300 0 81 1 12 3 -153 3 -165 0 -231 -2
-147 -3z"/>
<path d="M830 2150 c0 -6 57 -10 150 -10 93 0 150 4 150 10 0 6 -57 10 -150
10 -93 0 -150 -4 -150 -10z"/>
<path d="M1740 2150 c0 -6 83 -10 229 -10 143 0 232 4 236 10 4 7 -75 10 -229
10 -151 0 -236 -4 -236 -10z"/>
<path d="M1600 2135 c7 -8 18 -15 25 -15 7 0 18 7 25 15 11 13 7 15 -25 15
-32 0 -36 -2 -25 -15z"/>
<path d="M923 2113 c31 -2 83 -2 115 0 31 2 5 3 -58 3 -63 0 -89 -1 -57 -3z"/>
<path d="M1853 2113 c48 -2 126 -2 175 0 48 1 8 3 -88 3 -96 0 -136 -2 -87 -3z"/>
<path d="M760 2080 c0 -5 11 -10 24 -10 14 0 28 5 31 10 4 6 -7 10 -24 10 -17
0 -31 -4 -31 -10z"/>
<path d="M880 2078 c0 -5 41 -8 91 -8 58 0 88 4 84 10 -7 12 -175 9 -175 -2z"/>
<path d="M1860 2080 c-39 -5 -12 -7 88 -8 78 -1 142 1 142 6 0 9 -156 10 -230
2z"/>
<path d="M2170 2080 c0 -5 20 -10 45 -10 25 0 45 5 45 10 0 6 -20 10 -45 10
-25 0 -45 -4 -45 -10z"/>
<path d="M2120 2063 c0 -10 -7 -31 -16 -48 -10 -19 -11 -31 -5 -33 16 -5 13
-24 -9 -52 l-19 -25 -19 21 c-11 12 -41 38 -66 59 -45 36 -47 37 -89 26 -36
-9 -46 -8 -67 8 -14 10 -40 26 -59 35 -30 16 -35 16 -49 3 -13 -14 -4 -27 89
-126 57 -61 106 -111 110 -111 4 0 10 11 13 25 10 38 54 35 69 -5 14 -38 54
-40 49 -3 -4 32 15 63 39 63 21 0 20 0 -1 -36 -12 -19 -20 -38 -17 -41 3 -3
29 0 56 7 49 12 50 13 36 33 -20 29 -19 37 5 37 18 0 18 2 -6 38 -21 31 -23
38 -10 40 19 4 19 3 1 38 -8 16 -15 37 -15 47 0 9 -4 17 -10 17 -5 0 -10 -8
-10 -17z m-313 -69 c17 -13 41 -24 52 -24 14 0 21 -6 21 -20 0 -11 5 -20 11
-20 5 0 9 8 7 18 -3 20 9 42 23 42 5 0 9 -8 9 -17 1 -23 36 -70 46 -61 4 4 1
14 -6 23 -7 9 -10 18 -7 21 7 7 87 -58 82 -67 -8 -12 -142 -3 -162 12 -30 21
-133 117 -133 124 0 8 16 -1 57 -31z"/>
<path d="M902 2040 c10 -6 36 -7 70 -1 l53 9 -70 1 c-50 0 -65 -2 -53 -9z"/>
<path d="M1980 2040 c0 -12 57 -12 85 0 15 6 6 9 -32 9 -29 1 -53 -3 -53 -9z"/>
<path d="M2208 2043 c17 -2 47 -2 65 0 17 2 3 4 -33 4 -36 0 -50 -2 -32 -4z"/>
<path d="M2194 2008 c-3 -5 22 -8 55 -8 33 0 62 4 66 10 3 5 -19 8 -56 7 -33
-1 -63 -5 -65 -9z"/>
<path d="M717 1995 c-8 -20 9 -28 30 -16 15 8 15 11 3 12 -8 1 -1 5 15 9 l30
8 -36 1 c-24 1 -39 -4 -42 -14z"/>
<path d="M2285 1980 c-4 -6 7 -10 24 -10 17 0 31 5 31 10 0 6 -11 10 -24 10
-14 0 -28 -4 -31 -10z"/>
<path d="M2295 1940 c-4 -6 7 -10 24 -10 17 0 31 5 31 10 0 6 -11 10 -24 10
-14 0 -28 -4 -31 -10z"/>
<path d="M2360 1810 c0 -5 11 -10 24 -10 14 0 28 5 31 10 4 6 -7 10 -24 10
-17 0 -31 -4 -31 -10z"/>
<path d="M2430 1709 c25 -35 34 -33 24 5 -4 17 -13 26 -26 26 -19 0 -19 -1 2
-31z"/>
<path d="M2440 1505 c0 -8 9 -15 20 -15 11 0 20 7 20 15 0 8 -9 15 -20 15 -11
0 -20 -7 -20 -15z"/>
<path d="M1250 1280 c0 -29 1 -30 48 -30 55 0 75 10 70 36 -3 16 -14 20 -61
22 l-57 3 0 -31z"/>
<path d="M1600 1303 c-30 -11 -50 -37 -50 -64 l0 -28 60 41 c41 29 56 44 48
50 -15 9 -36 9 -58 1z"/>
<path d="M1636 1216 c-55 -37 -58 -40 -38 -49 42 -19 111 32 100 74 -2 10 -19
3 -62 -25z"/>
<path d="M2110 985 l0 -35 53 0 c55 0 77 12 77 41 0 22 -20 29 -81 29 l-49 0
0 -35z"/>
<path d="M1166 669 c5 -9 1 -11 -14 -7 -12 4 -24 2 -27 -2 -3 -5 97 -9 222 -9
126 0 273 -1 328 -2 166 -3 265 1 265 9 0 4 -161 8 -358 9 -196 2 -372 5 -390
9 -25 4 -32 2 -26 -7z"/>
<path d="M1507 423 c-14 -13 -7 -33 11 -33 24 0 32 8 25 26 -5 15 -25 19 -36
7z"/>
</g>
</svg>
